<svg xmlns="http://www.w3.org/2000/svg" viewBox="0 0 1000 478.11"><defs><style>.cls-1{isolation:isolate;}.cls-2{fill:#f6cecb;}.cls-2,.cls-3,.cls-4,.cls-5,.cls-6{mix-blend-mode:overlay;}.cls-3{fill:#e292b5;}.cls-4{fill:#b894b6;}.cls-5{fill:#fab92f;}.cls-6{fill:#e73508;}.cls-7{fill:#64b6ac;}.cls-7,.cls-8{mix-blend-mode:lighten;}.cls-8{fill:#e9d758;}.cls-9{fill:#283098;}</style></defs><g class="cls-1"><g id="Layer_2" data-name="Layer 2"><g id="Lettering"><path class="cls-2" d="M105.07,478.11H0V244.37Q0,180,33.71,139.58,53.11,116.27,83,102.5A145.31,145.31,0,0,1,144.4,88.73q62.65,0,105.63,42.14t43,103.39q0,59.55-42.7,102.82T149.18,380.34q-9.56,0-28.1-2V262.63Q134,273,146.93,273q16.29,0,27.95-12.08a39.86,39.86,0,0,0,11.66-28.65,37.79,37.79,0,0,0-12.08-28.23,40.2,40.2,0,0,0-28.93-11.66q-40.45,0-40.46,55.9Z"/><path class="cls-3" d="M292.56,0V372.4H190.84V0Z"/><path class="cls-4" d="M357.46,268.82V377.21a132.45,132.45,0,0,1-23.07,2.25q-61.78,0-103-41.46T190.2,234.09q0-60.76,41.61-103.07T333,88.73q66.47,0,104.78,39.63t38.31,108.25v137H373.39V244.18q0-22.12-10.57-35.29t-28.43-13.17q-16.2,0-28,12a39.43,39.43,0,0,0-11.81,28.57q0,17.37,10.71,28.57t27.19,11.2A45.89,45.89,0,0,0,357.46,268.82Z"/><path class="cls-5" d="M617.3,374.16H514.84V221q0-23.39-19.45-23.39-19.18,0-19.18,23.39V374.16H373.75V222.93q0-53,35.34-89.34t86.57-36.32q58.63,0,94,42.16,27.68,32.91,27.67,91.66Z"/><path class="cls-6" d="M703.89,247.41l105.37-2.32q-5.46,60.42-47.21,98.73t-100.79,37.4q-62.46-.95-104.81-44.45T515,231.1q.9-59.08,45-100.44T664.82,90.24Q717.91,91,758,124.7t49.25,85.07L699.6,212.05Q686,193.93,664.67,193.6q-18.17-.28-30,11.31T622.6,234.42q-.27,18.2,11.88,30.71t30.62,12.79Q692.06,278.33,703.89,247.41Z"/><rect class="cls-7" x="700.33" y="3.32" width="105.07" height="370.84"/><polygon class="cls-8" points="888.95 137.4 852.96 223.75 906.46 374.57 825.03 374.57 779 219.71 812.44 137.4 888.95 137.4"/><circle class="cls-9" cx="976.17" cy="350.07" r="23.83"/></g></g></g></svg>